<!DOCTYPE svg PUBLIC "-//W3C//DTD SVG 20010904//EN" "http://www.w3.org/TR/2001/REC-SVG-20010904/DTD/svg10.dtd">
<svg version="1.0" xmlns="http://www.w3.org/2000/svg" width="780px" height="270px" viewBox="0 0 7800 2700" preserveAspectRatio="xMidYMid meet">
<g id="layer101" fill="#000000" stroke="none">
 <path d="M3010 2277 c-17 -9 -26 -22 -28 -45 -2 -17 1 -32 7 -32 5 0 16 -3 25 -6 12 -4 16 0 16 15 0 19 6 21 60 21 57 0 60 -1 60 -25 0 -24 -2 -25 -74 -25 -58 0 -75 -3 -80 -16 -10 -27 -6 -110 6 -122 16 -16 170 -16 186 0 18 18 15 68 -3 68 -8 0 -15 4 -15 9 0 5 7 11 15 15 11 4 15 22 15 71 0 61 -2 66 -26 75 -36 14 -134 12 -164 -3z m140 -177 c0 -18 -7 -20 -55 -20 -48 0 -55 2 -55 20 0 18 7 20 55 20 48 0 55 -2 55 -20z"/>
 <path d="M3260 2160 l0 -130 105 0 105 0 0 25 c0 24 -2 25 -75 25 -68 0 -75 2 -75 20 0 17 7 20 45 20 43 0 45 1 45 30 0 29 -2 30 -45 30 -41 0 -45 2 -45 25 0 24 2 25 75 25 l75 0 0 30 0 30 -105 0 -105 0 0 -130z"/>
 <path d="M3550 2284 c-32 -13 -40 -38 -40 -127 0 -127 0 -127 120 -127 88 0 100 2 110 19 17 32 12 58 -12 65 -35 9 -38 8 -38 -14 0 -18 -7 -20 -60 -20 l-60 0 0 75 0 75 60 0 c53 0 60 -2 60 -20 0 -16 -7 -20 -35 -20 -32 0 -35 -2 -35 -30 l0 -30 65 0 65 0 0 64 c0 47 -4 67 -17 77 -17 14 -155 24 -183 13z"/>
 <path d="M3837 2284 c-28 -9 -37 -46 -37 -155 l0 -99 30 0 30 0 0 100 0 100 55 0 55 0 0 -100 0 -100 30 0 30 0 0 113 c0 61 -4 118 -9 126 -9 15 -147 25 -184 15z"/>
 <path d="M4090 2160 l0 -130 93 0 c59 0 97 4 105 12 7 7 12 39 12 75 0 55 -3 65 -20 71 -20 7 -19 10 15 49 19 23 35 44 35 47 0 3 -15 6 -34 6 -29 0 -41 -8 -76 -50 -23 -27 -48 -50 -56 -50 -10 0 -14 14 -14 50 0 49 -1 50 -30 50 l-30 0 0 -130z m158 -44 c5 -24 -14 -36 -60 -36 -36 0 -38 2 -38 31 0 30 1 30 47 27 37 -2 49 -7 51 -22z"/>
 <path d="M4360 2160 l0 -130 30 0 30 0 0 130 0 130 -30 0 -30 0 0 -130z"/>
 <path d="M4490 2160 l0 -130 91 0 c87 0 92 1 120 29 26 27 29 36 29 95 0 53 -4 70 -22 91 -26 30 -78 44 -160 45 l-58 0 0 -130z m171 53 c5 -5 12 -25 15 -44 8 -48 -18 -76 -78 -85 l-48 -6 0 77 0 78 51 -5 c27 -3 55 -10 60 -15z"/>
 <path d="M4763 2278 c2 -7 28 -66 57 -130 48 -107 56 -118 80 -118 23 0 31 11 79 118 29 64 56 123 58 130 4 8 -5 12 -27 12 -26 0 -34 -5 -43 -30 -11 -28 -14 -30 -68 -30 -53 0 -57 2 -69 30 -10 24 -19 30 -42 30 -20 0 -28 -4 -25 -12z m157 -121 c0 -7 -6 -21 -13 -30 -11 -16 -13 -15 -24 13 -11 28 -10 30 13 30 13 0 24 -6 24 -13z"/>
 <path d="M5080 2160 l0 -130 91 0 c87 0 92 1 120 29 26 27 29 36 29 95 0 53 -4 70 -22 91 -26 30 -78 44 -160 45 l-58 0 0 -130z m171 53 c5 -5 12 -25 15 -44 8 -48 -18 -76 -78 -85 l-48 -6 0 77 0 78 51 -5 c27 -3 55 -10 60 -15z"/>
 <path d="M5550 2160 l0 -131 103 3 102 3 9 37 c6 24 6 52 0 75 l-9 38 -77 3 -78 3 0 49 c0 47 -2 50 -25 50 l-25 0 0 -130z m158 -44 c5 -25 -14 -36 -65 -36 -41 0 -43 1 -43 31 l0 30 52 -3 c42 -2 54 -7 56 -22z"/>
 <path d="M5810 2160 l0 -130 93 0 c59 0 97 4 105 12 7 7 12 38 12 69 0 48 -4 60 -22 73 l-22 16 37 38 c20 21 37 41 37 45 0 4 -17 7 -37 7 -33 -1 -43 -7 -76 -50 -50 -65 -67 -65 -67 0 0 49 -1 50 -30 50 l-30 0 0 -130z m148 -47 c-3 -25 -7 -28 -45 -31 -42 -3 -43 -2 -43 27 0 30 1 31 46 31 44 0 45 -1 42 -27z"/>
 <path d="M6080 2160 l0 -130 25 0 25 0 0 130 0 130 -25 0 -25 0 0 -130z"/>
 <path d="M6220 2173 c-29 -65 -55 -124 -58 -131 -3 -10 4 -13 29 -10 31 3 35 8 64 75 17 40 34 75 37 78 3 3 20 -30 38 -75 30 -75 34 -80 62 -80 35 0 38 -13 -30 147 -64 152 -71 152 -142 -4z"/>
 <path d="M6420 2278 c0 -7 23 -66 52 -130 48 -106 56 -117 79 -118 23 0 31 12 82 121 32 67 57 125 57 130 0 5 -13 9 -29 9 -22 0 -31 -6 -41 -30 -12 -28 -16 -30 -69 -30 -54 0 -57 2 -68 30 -9 23 -18 30 -37 30 -14 0 -26 -6 -26 -12z m147 -138 c-11 -28 -13 -29 -24 -13 -20 26 -15 43 11 43 23 0 24 -2 13 -30z"/>
 <path d="M6740 2160 l0 -130 84 0 c68 0 88 4 109 20 54 43 60 154 12 203 -26 25 -77 37 -161 37 l-44 0 0 -130z m160 50 c20 -20 27 -74 12 -98 -9 -14 -65 -32 -99 -32 -22 0 -23 4 -23 75 l0 75 45 0 c32 0 51 -6 65 -20z"/>
 <path d="M7010 2278 c0 -7 23 -66 52 -130 48 -107 55 -118 79 -118 23 0 31 12 82 121 32 67 57 125 57 130 0 5 -13 9 -29 9 -22 0 -31 -6 -41 -30 -12 -28 -16 -30 -69 -30 -54 0 -57 2 -68 30 -9 23 -18 30 -37 30 -14 0 -26 -6 -26 -12z m152 -125 c-5 -10 -11 -25 -14 -33 -3 -10 -10 -5 -22 18 l-17 32 31 0 c26 0 29 -3 22 -17z"/>
 <path d="M4170 1814 c-100 -21 -180 -66 -243 -134 -69 -75 -97 -144 -104 -260 -18 -295 198 -592 505 -693 98 -33 228 -48 220 -26 -3 8 -23 88 -44 177 -36 152 -40 163 -64 169 -32 8 -109 47 -136 70 -68 58 -113 173 -94 242 14 53 51 95 100 115 22 9 40 21 40 28 0 7 -17 84 -37 171 -42 178 -30 166 -143 141z"/>
 <path d="M4330 1823 c0 -5 16 -74 35 -154 19 -79 37 -154 40 -166 3 -13 12 -23 20 -23 31 0 112 -46 153 -88 87 -87 118 -211 69 -283 -14 -22 -40 -41 -72 -53 -28 -11 -52 -21 -53 -22 -2 -1 15 -79 38 -173 48 -196 37 -184 158 -156 213 50 336 208 334 431 0 102 -21 187 -72 289 -112 227 -324 372 -587 401 -37 4 -63 3 -63 -3z"/>
 <path d="M5207 1813 c-135 -3 -148 -5 -143 -21 7 -21 233 -960 247 -1024 l11 -48 189 0 c104 0 189 2 189 4 0 3 -58 248 -130 544 -71 297 -130 543 -130 546 0 3 -19 5 -42 4 -24 -1 -110 -4 -191 -5z"/>
 <path d="M6120 1800 c30 -55 612 -1036 621 -1045 5 -5 9 0 9 15 0 14 9 135 20 269 l19 245 -147 268 -147 268 -193 0 c-190 0 -193 0 -182 -20z"/>
 <path d="M6877 1813 c-4 -3 -7 -35 -7 -70 l0 -63 -125 0 c-69 0 -125 -3 -125 -7 1 -5 33 -66 73 -138 l72 -130 43 -3 c51 -4 49 27 22 -332 -11 -146 -20 -284 -20 -307 l0 -43 165 0 164 0 5 33 c6 36 116 1037 116 1055 0 9 -49 12 -188 12 -104 0 -192 -3 -195 -7z"/>
 <path d="M2115 1798 c-2 -7 -27 -95 -55 -194 l-50 -181 25 -109 c15 -60 28 -116 31 -125 3 -12 21 -19 60 -24 71 -9 122 -51 131 -107 5 -36 4 -39 -30 -53 -20 -8 -52 -15 -72 -15 -25 0 -35 -4 -35 -15 0 -9 14 -72 31 -140 l31 -125 112 0 c140 0 197 16 261 72 64 57 85 104 85 199 0 87 -23 166 -71 240 -36 56 -106 123 -152 145 l-33 16 66 191 c37 106 70 202 74 215 l7 22 -206 0 c-155 0 -207 -3 -210 -12z"/>
 <path d="M2930 1803 c0 -5 23 -105 51 -223 l52 -215 281 -325 282 -325 217 -3 c119 -1 217 0 217 3 0 3 -141 158 -313 343 l-313 338 -47 194 c-26 107 -47 201 -47 208 0 9 -45 12 -190 12 -104 0 -190 -3 -190 -7z"/>
 <path d="M5494 1799 c2 -8 19 -73 36 -146 l32 -131 36 -7 c154 -27 276 -178 277 -342 0 -52 -4 -65 -25 -88 -29 -31 -81 -60 -127 -70 -18 -3 -33 -12 -33 -18 0 -6 14 -70 32 -144 37 -154 23 -144 171 -118 137 24 193 49 264 120 53 53 64 71 84 135 18 60 21 87 16 154 -14 184 -79 330 -201 452 -93 93 -196 151 -331 184 -111 27 -237 38 -231 19z"/>
 <path d="M232 1792 c11 -29 622 -1052 627 -1052 7 0 41 423 41 500 0 25 -38 104 -142 297 l-143 262 -193 1 c-107 0 -192 -4 -190 -8z"/>
 <path d="M990 1735 l0 -64 -130 -3 -130 -3 78 -142 77 -143 43 0 c23 0 42 -5 42 -11 0 -20 -39 -555 -45 -611 l-6 -58 171 0 c93 0 170 4 170 8 0 16 110 1018 116 1055 l6 37 -196 0 -196 0 0 -65z"/>
 <path d="M1494 1783 c8 -26 256 -1060 256 -1067 0 -3 86 -6 191 -6 149 0 190 3 186 13 -2 6 -62 252 -132 545 l-129 532 -189 0 c-175 0 -188 -1 -183 -17z"/>
 <path d="M2995 1298 c-7 -18 -65 -157 -129 -308 l-115 -275 201 -3 c111 -1 205 1 209 5 19 19 138 296 132 307 -10 16 -274 306 -280 306 -2 0 -10 -15 -18 -32z"/>
 </g>
<g id="layer102" fill="#897b5c" stroke="none">
 <path d="M4170 1814 c-100 -21 -180 -66 -243 -134 -69 -75 -97 -144 -104 -260 -18 -295 198 -592 505 -693 98 -33 228 -48 220 -26 -3 8 -23 88 -44 177 -36 152 -40 163 -64 169 -32 8 -109 47 -136 70 -68 58 -113 173 -94 242 14 53 51 95 100 115 22 9 40 21 40 28 0 7 -17 84 -37 171 -42 178 -30 166 -143 141z m106 -164 l31 -130 -34 -17 c-104 -49 -139 -193 -77 -316 38 -73 124 -147 196 -169 25 -7 40 -19 43 -32 3 -12 18 -74 34 -139 l28 -117 -36 6 c-121 20 -256 81 -350 158 -209 171 -305 468 -216 663 28 61 88 130 143 165 42 26 137 57 177 57 l30 1 31 -130z"/>
 <path d="M4330 1823 c0 -5 16 -74 35 -154 19 -79 37 -154 40 -166 3 -13 12 -23 20 -23 31 0 112 -46 153 -88 87 -87 118 -211 69 -283 -14 -22 -40 -41 -72 -53 -28 -11 -52 -21 -53 -22 -2 -1 15 -79 38 -173 48 -196 37 -184 158 -156 213 50 336 208 334 431 0 102 -21 187 -72 289 -112 227 -324 372 -587 401 -37 4 -63 3 -63 -3z m204 -69 c261 -86 442 -299 475 -562 23 -183 -59 -344 -213 -416 -45 -21 -155 -51 -161 -44 -5 6 -66 270 -63 272 2 1 18 8 36 16 43 17 89 71 98 115 10 57 0 137 -26 191 -32 67 -115 146 -182 174 l-54 22 -28 117 c-15 64 -30 123 -32 132 -4 14 2 15 47 8 28 -5 74 -16 103 -25z"/>
 <path d="M5207 1813 c-135 -3 -148 -5 -143 -21 7 -21 233 -960 247 -1024 l11 -48 189 0 c104 0 189 2 189 4 0 3 -58 248 -130 544 -71 297 -130 543 -130 546 0 3 -19 5 -42 4 -24 -1 -110 -4 -191 -5z m317 -531 c65 -273 121 -503 124 -510 3 -10 -27 -12 -144 -10 l-149 3 -120 500 -121 500 126 5 c69 3 134 7 145 8 18 2 30 -39 139 -496z"/>
 <path d="M6120 1800 c30 -55 612 -1036 621 -1045 5 -5 9 0 9 15 0 14 9 135 20 269 l19 245 -147 268 -147 268 -193 0 c-190 0 -193 0 -182 -20z m489 -280 l138 -255 -13 -170 c-7 -93 -15 -181 -16 -195 -2 -19 -67 83 -257 405 -140 237 -261 440 -269 453 l-15 23 147 -3 147 -3 138 -255z"/>
 <path d="M6877 1813 c-4 -3 -7 -35 -7 -70 l0 -63 -125 0 c-69 0 -125 -3 -125 -7 1 -5 33 -66 73 -138 l72 -130 43 -3 c51 -4 49 27 22 -332 -11 -146 -20 -284 -20 -307 l0 -43 165 0 164 0 5 33 c6 36 116 1037 116 1055 0 9 -49 12 -188 12 -104 0 -192 -3 -195 -7z m339 -50 c-2 -10 -28 -240 -57 -510 l-53 -493 -128 0 c-103 0 -128 3 -128 14 0 22 39 566 44 619 l5 47 -52 0 -52 0 -52 94 c-29 52 -53 97 -53 100 0 3 42 6 94 6 52 0 101 3 110 6 12 5 16 21 16 70 l0 64 156 0 c143 0 155 -1 150 -17z"/>
 <path d="M2115 1798 c-2 -7 -27 -95 -55 -194 l-50 -181 25 -109 c15 -60 28 -116 31 -125 3 -12 21 -19 60 -24 71 -9 122 -51 131 -107 5 -36 4 -39 -30 -53 -20 -8 -52 -15 -72 -15 -25 0 -35 -4 -35 -15 0 -9 14 -72 31 -140 l31 -125 112 0 c140 0 197 16 261 72 64 57 85 104 85 199 0 87 -23 166 -71 240 -36 56 -106 123 -152 145 l-33 16 66 191 c37 106 70 202 74 215 l7 22 -206 0 c-155 0 -207 -3 -210 -12z m355 -37 c0 -5 -5 -22 -11 -38 -6 -15 -37 -103 -69 -195 l-58 -167 46 -23 c69 -33 147 -116 185 -195 25 -53 32 -84 35 -144 4 -85 -13 -132 -65 -180 -55 -52 -90 -63 -208 -67 l-111 -4 -22 93 c-12 52 -22 97 -22 101 0 3 19 9 42 13 23 4 52 18 66 32 21 21 24 31 19 70 -8 76 -68 135 -150 147 l-44 7 -25 105 -25 105 48 172 c27 95 49 173 49 175 0 7 320 0 320 -7z"/>
 <path d="M2930 1803 c0 -5 23 -105 51 -223 l52 -215 281 -325 282 -325 217 -3 c119 -1 217 0 217 3 0 3 -141 158 -313 343 l-313 338 -47 194 c-26 107 -47 201 -47 208 0 9 -45 12 -190 12 -104 0 -190 -3 -190 -7z m349 -70 c6 -21 28 -110 48 -198 l38 -159 259 -281 c142 -154 272 -295 289 -312 l31 -33 -162 0 -161 0 -273 315 -273 316 -47 182 c-25 100 -47 188 -47 195 -1 9 34 12 144 12 l144 0 10 -37z"/>
 <path d="M5494 1799 c2 -8 19 -73 36 -146 l32 -131 36 -7 c154 -27 276 -178 277 -342 0 -52 -4 -65 -25 -88 -29 -31 -81 -60 -127 -70 -18 -3 -33 -12 -33 -18 0 -6 14 -70 32 -144 37 -154 23 -144 171 -118 137 24 193 49 264 120 53 53 64 71 84 135 18 60 21 87 16 154 -14 184 -79 330 -201 452 -93 93 -196 151 -331 184 -111 27 -237 38 -231 19z m221 -60 c130 -31 218 -80 311 -173 125 -125 187 -273 188 -451 1 -74 -3 -99 -22 -140 -31 -67 -93 -128 -161 -159 -60 -27 -230 -61 -242 -49 -7 9 -49 175 -49 195 0 7 22 21 49 31 60 21 117 81 127 134 4 21 2 66 -3 100 -28 163 -132 282 -279 322 l-40 11 -22 92 c-12 51 -22 99 -22 106 0 15 44 10 165 -19z"/>
 <path d="M232 1792 c11 -29 622 -1052 627 -1052 7 0 41 423 41 500 0 25 -38 104 -142 297 l-143 262 -193 1 c-107 0 -192 -4 -190 -8z m492 -284 l138 -252 -13 -193 c-7 -106 -15 -193 -18 -193 -5 0 -380 628 -504 842 l-27 48 143 0 143 0 138 -252z"/>
 <path d="M990 1735 l0 -64 -130 -3 -130 -3 78 -142 77 -143 43 0 c23 0 42 -5 42 -11 0 -20 -39 -555 -45 -611 l-6 -58 171 0 c93 0 170 4 170 8 0 16 110 1018 116 1055 l6 37 -196 0 -196 0 0 -65z m340 8 c0 -23 -98 -929 -105 -970 l-6 -33 -124 0 -125 0 0 43 c0 23 9 159 20 302 11 143 20 277 20 297 l0 37 -51 3 -50 3 -55 103 -55 102 109 0 c124 0 122 -2 122 88 l0 42 150 0 c135 0 150 -2 150 -17z"/>
 <path d="M1494 1783 c8 -26 256 -1060 256 -1067 0 -3 86 -6 191 -6 149 0 190 3 186 13 -2 6 -62 252 -132 545 l-129 532 -189 0 c-175 0 -188 -1 -183 -17z m462 -530 l121 -503 -146 0 -146 0 -78 328 c-43 180 -98 407 -121 505 l-43 178 146 -3 146 -3 121 -502z"/>
 <path d="M2995 1298 c-7 -18 -65 -157 -129 -308 l-115 -275 201 -3 c111 -1 205 1 209 5 19 19 138 296 132 307 -10 16 -274 306 -280 306 -2 0 -10 -15 -18 -32z m160 -181 l97 -108 -58 -129 -59 -130 -162 0 -162 0 46 108 c24 59 72 173 106 255 58 138 62 146 78 130 9 -10 60 -67 114 -126z"/>
 </g>
<g id="layer103" fill="#cda44b" stroke="none">
 <path d="M4170 1814 c-100 -21 -180 -66 -243 -134 -69 -75 -97 -144 -104 -260 -18 -295 198 -592 505 -693 98 -33 228 -48 220 -26 -3 8 -23 88 -44 177 -36 152 -40 163 -64 169 -32 8 -109 47 -136 70 -68 58 -113 173 -94 242 14 53 51 95 100 115 22 9 40 21 40 28 0 7 -17 84 -37 171 -42 178 -30 166 -143 141z m109 -154 c17 -71 31 -133 31 -138 0 -5 -13 -15 -29 -22 -62 -25 -111 -104 -111 -178 0 -130 99 -259 231 -301 l35 -11 32 -133 c18 -74 32 -137 32 -140 0 -11 -49 -8 -109 8 -276 71 -496 312 -529 577 -28 226 81 396 291 453 98 26 91 32 126 -115z"/>
 <path d="M4330 1823 c0 -5 16 -74 35 -154 19 -79 37 -154 40 -166 3 -13 12 -23 20 -23 31 0 112 -46 153 -88 87 -87 118 -211 69 -283 -14 -22 -40 -41 -72 -53 -28 -11 -52 -21 -53 -22 -2 -1 15 -79 38 -173 48 -196 37 -184 158 -156 213 50 336 208 334 431 0 102 -21 187 -72 289 -112 227 -324 372 -587 401 -37 4 -63 3 -63 -3z m220 -69 c390 -130 596 -604 383 -882 -36 -48 -131 -107 -206 -127 -99 -27 -96 -29 -133 125 -32 135 -32 149 3 150 22 0 76 54 94 95 23 49 23 83 3 154 -28 100 -125 204 -217 233 -25 7 -39 19 -43 33 -3 12 -18 75 -33 140 l-29 117 52 -7 c28 -3 85 -18 126 -31z"/>
 <path d="M5207 1813 c-135 -3 -148 -5 -143 -21 7 -21 233 -960 247 -1024 l11 -48 189 0 c104 0 189 2 189 4 0 3 -58 248 -130 544 -71 297 -130 543 -130 546 0 3 -19 5 -42 4 -24 -1 -110 -4 -191 -5z m207 -50 c17 -56 236 -980 236 -995 0 -17 -13 -18 -150 -18 -82 0 -150 2 -150 5 0 3 -54 229 -120 503 -66 274 -120 504 -120 510 0 9 42 12 149 12 134 0 150 -2 155 -17z"/>
 <path d="M6120 1800 c30 -55 612 -1036 621 -1045 5 -5 9 0 9 15 0 14 9 135 20 269 l19 245 -147 268 -147 268 -193 0 c-190 0 -193 0 -182 -20z m493 -273 l139 -252 -11 -160 c-7 -88 -14 -181 -17 -208 l-6 -47 -265 447 c-146 247 -267 454 -270 461 -4 9 29 12 143 12 l149 0 138 -253z"/>
 <path d="M6877 1813 c-4 -3 -7 -35 -7 -70 l0 -63 -125 0 c-69 0 -125 -3 -125 -7 1 -5 33 -66 73 -138 l72 -130 43 -3 c51 -4 49 27 22 -332 -11 -146 -20 -284 -20 -307 l0 -43 165 0 164 0 5 33 c6 36 116 1037 116 1055 0 9 -49 12 -188 12 -104 0 -192 -3 -195 -7z m343 -40 c0 -21 -98 -925 -106 -975 l-6 -38 -133 0 -134 0 5 48 c6 63 44 586 44 611 0 17 -8 20 -52 23 l-53 3 -52 95 c-29 52 -53 98 -53 103 0 4 49 7 109 7 l109 0 7 65 7 64 76 4 c209 9 232 8 232 -10z"/>
 <path d="M2115 1798 c-2 -7 -27 -95 -55 -194 l-50 -181 25 -109 c15 -60 28 -116 31 -125 3 -12 21 -19 60 -24 71 -9 122 -51 131 -107 5 -36 4 -39 -30 -53 -20 -8 -52 -15 -72 -15 -25 0 -35 -4 -35 -15 0 -9 14 -72 31 -140 l31 -125 112 0 c140 0 197 16 261 72 64 57 85 104 85 199 0 87 -23 166 -71 240 -36 56 -106 123 -152 145 l-33 16 66 191 c37 106 70 202 74 215 l7 22 -206 0 c-155 0 -207 -3 -210 -12z m365 -30 c0 -2 -32 -93 -70 -202 -39 -110 -69 -200 -68 -201 2 -2 19 -10 38 -20 159 -81 262 -285 220 -436 -15 -53 -72 -113 -132 -139 -38 -16 -79 -24 -154 -28 -94 -4 -102 -3 -107 14 -6 20 -47 193 -47 198 0 2 21 6 46 9 84 9 110 70 67 154 -23 43 -89 83 -139 83 -37 0 -35 -4 -70 143 l-17 76 48 175 48 176 169 0 c92 0 168 -1 168 -2z"/>
 <path d="M2930 1803 c0 -5 23 -105 51 -223 l52 -215 281 -325 282 -325 217 -3 c119 -1 217 0 217 3 0 3 -141 158 -313 343 l-313 338 -47 194 c-26 107 -47 201 -47 208 0 9 -45 12 -190 12 -104 0 -190 -3 -190 -7z m395 -230 l48 -198 190 -205 c104 -113 234 -253 289 -312 l100 -108 -169 0 -169 0 -275 318 -276 319 -43 179 c-23 98 -45 185 -47 192 -4 9 30 12 150 12 l154 0 48 -197z"/>
 <path d="M5494 1799 c2 -8 19 -73 36 -146 l32 -131 36 -7 c154 -27 276 -178 277 -342 0 -52 -4 -65 -25 -88 -29 -31 -81 -60 -127 -70 -18 -3 -33 -12 -33 -18 0 -6 14 -70 32 -144 37 -154 23 -144 171 -118 137 24 193 49 264 120 53 53 64 71 84 135 18 60 21 87 16 154 -14 184 -79 330 -201 452 -93 93 -196 151 -331 184 -111 27 -237 38 -231 19z m246 -60 c182 -50 333 -172 408 -329 22 -47 47 -115 56 -151 21 -84 21 -212 0 -272 -21 -63 -85 -132 -153 -166 -60 -31 -178 -61 -235 -61 -31 0 -36 4 -42 28 -3 15 -15 61 -25 104 -10 42 -19 79 -19 81 0 3 17 11 38 17 58 19 107 55 125 93 48 101 -11 296 -117 390 -29 25 -114 65 -154 73 -24 5 -34 13 -38 33 -3 14 -15 60 -25 103 -10 42 -19 80 -19 84 0 11 120 -4 200 -27z"/>
 <path d="M232 1792 c11 -29 622 -1052 627 -1052 7 0 41 423 41 500 0 25 -38 104 -142 297 l-143 262 -193 1 c-107 0 -192 -4 -190 -8z m497 -280 l141 -258 -15 -185 c-8 -101 -15 -193 -15 -204 0 -12 -3 -15 -9 -10 -10 10 -501 836 -527 888 l-15 27 149 0 150 0 141 -258z"/>
 <path d="M990 1735 l0 -64 -130 -3 -130 -3 78 -142 77 -143 43 0 c23 0 42 -5 42 -11 0 -20 -39 -555 -45 -611 l-6 -58 171 0 c93 0 170 4 170 8 0 16 110 1018 116 1055 l6 37 -196 0 -196 0 0 -65z m350 33 c0 -2 -25 -228 -55 -503 -30 -275 -55 -506 -55 -512 0 -10 -34 -13 -135 -13 -74 0 -135 2 -135 4 0 17 41 573 45 619 l6 57 -53 0 -53 1 -56 102 -56 102 114 3 113 3 0 53 c0 90 -8 86 166 86 85 0 154 -1 154 -2z"/>
 <path d="M1494 1783 c8 -26 256 -1060 256 -1067 0 -3 86 -6 191 -6 149 0 190 3 186 13 -2 6 -62 252 -132 545 l-129 532 -189 0 c-175 0 -188 -1 -183 -17z m346 -19 c0 -3 54 -230 120 -504 66 -274 120 -503 120 -509 0 -8 -46 -11 -150 -11 -82 0 -150 2 -150 4 0 3 -54 229 -120 504 -66 274 -120 504 -120 510 0 9 41 12 150 12 83 0 150 -3 150 -6z"/>
 <path d="M2995 1298 c-7 -18 -65 -157 -129 -308 l-115 -275 201 -3 c111 -1 205 1 209 5 19 19 138 296 132 307 -10 16 -274 306 -280 306 -2 0 -10 -15 -18 -32z m153 -166 l111 -122 -58 -128 -58 -127 -64 -6 c-111 -11 -269 -10 -269 2 0 23 214 519 220 512 4 -4 57 -63 118 -131z"/>
 </g>

</svg>