<!DOCTYPE svg PUBLIC "-//W3C//DTD SVG 20010904//EN" "http://www.w3.org/TR/2001/REC-SVG-20010904/DTD/svg10.dtd">
<svg version="1.0" xmlns="http://www.w3.org/2000/svg" width="306px" height="350px" viewBox="0 0 3060 3500" preserveAspectRatio="xMidYMid meet">
<g id="layer101" fill="#242021" stroke="none">
 <path d="M1380 3074 c-74 -64 -202 -172 -284 -241 -81 -69 -187 -160 -235 -202 -48 -42 -167 -143 -264 -225 l-177 -149 0 -948 0 -949 1120 0 1120 0 0 948 0 949 -54 44 c-30 24 -175 145 -322 269 -533 448 -743 620 -756 620 -7 0 -74 -52 -148 -116z"/>
 </g>
<g id="layer102" fill="#d1b575" stroke="none">
 <path d="M1380 3074 c-74 -64 -202 -172 -284 -241 -81 -69 -187 -160 -235 -202 -48 -42 -167 -143 -264 -225 l-177 -149 0 -948 0 -949 1120 0 1120 0 0 948 0 949 -54 44 c-30 24 -175 145 -322 269 -533 448 -743 620 -756 620 -7 0 -74 -52 -148 -116z m580 -290 c234 -195 478 -399 542 -452 l117 -97 0 -917 1 -918 -1085 0 -1085 0 0 909 0 910 43 40 c23 21 76 67 117 102 41 34 207 175 369 313 491 419 546 465 551 466 3 0 196 -160 430 -356z"/>
 <path d="M1238 2799 c-155 -133 -379 -323 -496 -422 l-212 -180 0 -863 0 -864 1005 0 1005 0 0 867 0 866 -37 32 c-238 203 -965 805 -972 805 -5 0 -137 -109 -293 -241z m427 -187 c72 -59 255 -212 408 -340 l277 -233 0 -685 0 -684 -815 0 -815 0 0 350 c0 193 2 350 4 350 2 0 31 -38 65 -84 33 -46 95 -121 137 -166 63 -66 92 -88 158 -120 99 -48 157 -60 292 -60 136 0 238 15 356 51 107 32 164 74 174 129 5 23 12 28 45 33 60 8 169 67 204 110 29 38 30 42 30 145 0 59 -3 115 -8 126 -6 16 -12 14 -51 -22 -51 -47 -87 -57 -192 -50 -59 4 -81 10 -112 32 -97 67 -254 93 -379 63 -110 -25 -64 8 52 38 32 8 87 15 122 15 l62 0 6 38 c14 80 74 245 120 327 32 58 103 173 136 222 16 23 29 45 29 48 0 4 -28 4 -62 0 -200 -22 -373 -94 -522 -219 l-49 -41 7 30 c19 78 72 168 150 254 l31 34 -44 -6 c-136 -17 -292 -150 -374 -319 -43 -89 -97 -262 -97 -314 0 -50 -19 -30 -34 35 -34 149 -14 338 49 476 31 68 107 182 165 248 42 48 327 297 339 297 4 0 65 -48 136 -108z m-800 -494 c-45 -84 -60 -174 -44 -277 6 -42 16 -85 21 -96 11 -20 10 -20 -10 -2 -32 29 -62 101 -69 169 -7 68 -21 57 -22 -17 -2 -74 -21 -15 -21 65 l0 76 86 72 c47 40 87 72 90 72 2 0 -12 -28 -31 -62z m704 -898 c-24 -20 -24 -20 -5 -35 28 -22 49 -19 113 15 60 32 95 37 140 19 l28 -11 -45 -12 c-25 -7 -67 -29 -93 -49 -57 -43 -102 -48 -152 -17 -29 18 -65 59 -65 75 0 9 62 34 84 35 16 0 15 -2 -5 -20z"/>
 </g>
<g id="layer103" fill="#fdfdfd" stroke="none">
 <path d="M1255 2808 c-148 -127 -372 -318 -497 -425 l-228 -194 0 -859 0 -860 1005 0 1005 0 0 864 0 865 -504 420 c-277 232 -505 421 -507 421 -2 -1 -125 -105 -274 -232z m686 -420 l409 -342 0 -693 0 -693 -812 2 -813 3 -3 358 c-1 196 1 357 5 356 5 0 29 -33 56 -72 115 -174 236 -286 355 -330 74 -28 227 -40 355 -27 113 10 273 47 327 75 32 16 74 67 84 102 5 16 18 24 44 29 59 11 179 72 200 102 34 48 45 100 38 176 -3 39 -9 81 -12 93 -6 22 -8 21 -44 -20 l-38 -42 -103 -4 -103 -3 -91 46 c-110 58 -190 72 -308 56 -43 -6 -85 -14 -94 -17 -10 -4 -14 -2 -11 7 7 22 96 50 196 62 l97 11 22 91 c26 105 125 313 208 438 30 44 55 83 55 85 0 8 -85 2 -148 -12 -157 -33 -329 -116 -429 -208 l-43 -40 0 28 c0 47 67 170 127 235 l56 61 -43 -7 c-56 -9 -143 -52 -207 -102 -120 -95 -220 -293 -254 -502 -7 -39 -15 -70 -19 -70 -9 0 -26 60 -41 144 -17 103 -5 220 35 337 64 186 150 301 370 490 89 76 163 138 164 139 2 0 188 -154 413 -342z m-1004 -178 c-107 -117 -143 -266 -103 -420 8 -30 12 -57 9 -60 -17 -17 -82 126 -84 183 0 27 -2 29 -9 12 -5 -11 -9 -36 -10 -55 -3 -70 -19 2 -19 88 -1 82 0 84 31 110 18 15 73 62 123 104 49 43 92 78 94 78 2 0 -13 -18 -32 -40z m673 -968 c0 -4 -13 -13 -30 -19 -39 -14 -38 -28 1 -42 28 -10 38 -7 84 19 57 32 127 40 168 18 20 -10 18 -12 -27 -25 -27 -8 -66 -28 -86 -44 -72 -58 -137 -55 -201 7 -22 21 -39 41 -39 46 0 10 38 30 75 39 42 10 55 10 55 1z"/>
 </g>

</svg>